<?xml version="1.0" encoding="UTF-8" standalone="no"?>
<!DOCTYPE svg PUBLIC "-//W3C//DTD SVG 1.1//EN" "http://www.w3.org/Graphics/SVG/1.1/DTD/svg11.dtd">
<svg width="100%" height="100%" viewBox="0 0 100 50" version="1.1" xmlns="http://www.w3.org/2000/svg" xmlns:xlink="http://www.w3.org/1999/xlink" xml:space="preserve" xmlns:serif="http://www.serif.com/" style="fill-rule:evenodd;clip-rule:evenodd;stroke-linejoin:round;stroke-miterlimit:2;">
    <g transform="matrix(15.6713,-39.39,39.39,15.6713,69.2245,64.6816)">
        <path d="M1.527,-0.014C1.519,-0.011 1.516,-0.002 1.519,0.005C1.522,0.013 1.53,0.016 1.538,0.013C1.545,0.01 1.549,0.002 1.546,-0.005C1.543,-0.013 1.535,-0.017 1.527,-0.014ZM1.528,-0.013C1.534,-0.015 1.542,-0.012 1.545,-0.005C1.548,0.002 1.544,0.01 1.537,0.012C1.53,0.015 1.523,0.012 1.52,0.005C1.517,-0.002 1.521,-0.01 1.528,-0.013Z" style="fill:url(#_Linear1);fill-rule:nonzero;"/>
    </g>
    <g transform="matrix(15.6375,-39.305,39.305,15.6375,69.2868,64.544)">
        <path d="M1.538,-0.009L1.522,-0.003L1.522,-0.002L1.529,-0.005L1.531,0C1.533,0.005 1.532,0.005 1.53,0.006C1.527,0.008 1.527,0.008 1.526,0.008L1.527,0.009C1.527,0.009 1.528,0.009 1.531,0.007C1.532,0.006 1.533,0.005 1.533,0.003C1.534,0.004 1.536,0.005 1.538,0.004C1.542,0.003 1.541,-0.002 1.54,-0.003L1.538,-0.009ZM1.537,-0.008L1.539,-0.002C1.54,-0.001 1.541,0.002 1.538,0.003C1.534,0.005 1.533,0.001 1.532,-0L1.53,-0.005L1.537,-0.008Z" style="fill:url(#_Linear2);fill-rule:nonzero;"/>
    </g>
    <g transform="matrix(15.6827,-39.4185,39.4185,15.6827,27.9122,48.3618)">
        <path d="M1.092,-0.095L0.823,0.012L0.849,0.078L0.933,0.044L0.945,0.074C0.962,0.116 0.977,0.131 1,0.143C1.021,0.154 1.054,0.154 1.081,0.143C1.108,0.133 1.131,0.112 1.14,0.084C1.146,0.064 1.146,0.043 1.126,-0.007L1.092,-0.095ZM1.057,-0.005L1.068,0.02C1.073,0.035 1.086,0.066 1.054,0.078C1.022,0.091 1.01,0.061 1.005,0.048L0.994,0.02L1.057,-0.005Z" style="fill:white;fill-rule:nonzero;"/>
    </g>
    <g transform="matrix(15.7033,-39.4704,39.4704,15.7033,38.0072,52.4335)">
        <path d="M1.18,-0.128L0.912,-0.021L0.971,0.128L1.031,0.104L0.998,0.02L1.044,0.002L1.076,0.083L1.136,0.059L1.104,-0.022L1.146,-0.038L1.179,0.045L1.239,0.021L1.18,-0.128Z" style="fill:white;fill-rule:nonzero;"/>
    </g>
    <g transform="matrix(15.7048,-39.474,39.474,15.7048,50.9915,57.6097)">
        <path d="M1.288,-0.186L0.977,-0.187L1.006,-0.114L1.051,-0.115L1.088,-0.022L1.054,0.006L1.084,0.081L1.309,-0.132L1.288,-0.186ZM1.215,-0.127L1.215,-0.126L1.135,-0.062L1.112,-0.118L1.215,-0.127Z" style="fill:white;fill-rule:nonzero;"/>
    </g>
    <g transform="matrix(15.7029,-39.4693,39.4693,15.7029,66.8441,63.9185)">
        <path d="M1.471,-0.128L1.203,-0.021L1.262,0.128L1.322,0.104L1.289,0.021L1.335,0.002L1.368,0.085L1.428,0.061L1.395,-0.022L1.437,-0.038L1.47,0.045L1.53,0.021L1.471,-0.128Z" style="fill:white;fill-rule:nonzero;"/>
    </g>
    <g transform="matrix(15.7031,-39.4698,39.4698,15.7031,40.824,53.5377)">
        <path d="M0.814,-0.186L0.503,-0.187L0.533,-0.114L0.577,-0.115L0.614,-0.022L0.58,0.006L0.61,0.081L0.836,-0.132L0.814,-0.186ZM0.741,-0.127L0.742,-0.126L0.661,-0.062L0.639,-0.118L0.741,-0.127Z" style="fill:white;fill-rule:nonzero;"/>
    </g>
    <g transform="matrix(15.6992,-39.4602,39.4602,15.6992,47.1565,56.0765)">
        <path d="M0.95,-0.006L0.784,0.064L0.783,0.063L0.91,-0.107L0.887,-0.166L0.619,-0.06L0.645,0.006L0.807,-0.061L0.807,-0.06L0.685,0.107L0.709,0.166L0.977,0.06L0.95,-0.006Z" style="fill:white;fill-rule:nonzero;"/>
    </g>
    <g transform="matrix(15.7144,-39.4983,39.4983,15.7144,56.7054,59.9273)">
        <path d="M1.027,-0.056L0.992,-0.145L0.724,-0.038L0.761,0.056C0.802,0.157 0.878,0.169 0.951,0.14C0.98,0.128 1.006,0.111 1.024,0.082C1.06,0.028 1.039,-0.026 1.027,-0.056ZM0.959,-0.052L0.971,-0.023C0.983,0.008 0.976,0.027 0.967,0.039C0.956,0.055 0.938,0.066 0.923,0.072C0.885,0.087 0.843,0.087 0.823,0.036L0.811,0.006L0.959,-0.052Z" style="fill:white;fill-rule:nonzero;"/>
    </g>
    <g transform="matrix(15.7103,-39.488,39.488,15.7103,40.0351,53.22)">
        <path d="M0.379,-0.113C0.329,-0.093 0.328,-0.039 0.328,-0.017C0.327,0.031 0.327,0.044 0.31,0.051C0.297,0.056 0.28,0.052 0.274,0.035C0.27,0.027 0.268,0.005 0.299,-0.007L0.272,-0.075L0.263,-0.072C0.229,-0.058 0.186,-0.019 0.217,0.059C0.245,0.13 0.297,0.135 0.336,0.119C0.367,0.107 0.385,0.085 0.388,0.026C0.39,-0.031 0.391,-0.039 0.407,-0.045C0.419,-0.05 0.432,-0.042 0.437,-0.03C0.445,-0.009 0.429,-0 0.421,0.005L0.448,0.072C0.463,0.066 0.48,0.057 0.493,0.034C0.507,0.008 0.506,-0.024 0.495,-0.051C0.477,-0.096 0.429,-0.133 0.379,-0.113Z" style="fill:white;fill-rule:nonzero;"/>
    </g>
    <g transform="matrix(15.6996,-39.4611,39.4611,15.6996,59.1537,60.8323)">
        <path d="M0.542,-0.171C0.519,-0.171 0.498,-0.166 0.481,-0.159C0.412,-0.131 0.367,-0.048 0.401,0.036C0.434,0.12 0.522,0.153 0.596,0.123C0.671,0.093 0.712,0.009 0.679,-0.074C0.649,-0.149 0.582,-0.171 0.542,-0.171ZM0.51,-0.096C0.548,-0.111 0.6,-0.098 0.619,-0.05C0.638,-0.001 0.605,0.046 0.571,0.06C0.536,0.073 0.48,0.061 0.461,0.013C0.443,-0.033 0.469,-0.08 0.51,-0.096Z" style="fill:white;fill-rule:nonzero;"/>
    </g>
    <g transform="matrix(15.7009,-39.4644,39.4644,15.7009,68.7198,64.6379)">
        <path d="M0.737,-0.157L0.469,-0.05L0.495,0.016L0.581,-0.019L0.582,-0.018L0.52,0.078L0.551,0.157L0.613,0.047C0.642,0.095 0.693,0.093 0.724,0.08C0.752,0.07 0.775,0.047 0.784,0.018C0.791,-0.004 0.789,-0.025 0.77,-0.072L0.737,-0.157ZM0.703,-0.067L0.713,-0.042C0.723,-0.016 0.718,0.007 0.694,0.017C0.681,0.022 0.654,0.027 0.638,-0.013L0.628,-0.037L0.703,-0.067Z" style="fill:white;fill-rule:nonzero;"/>
    </g>
    <g transform="matrix(15.7019,-39.4668,39.4668,15.7019,74.7075,67.0596)">
        <path d="M0.824,-0.091L0.764,-0.067L0.785,-0.014L0.577,0.068L0.604,0.137L0.812,0.054L0.831,0.1L0.891,0.076L0.824,-0.091Z" style="fill:white;fill-rule:nonzero;"/>
    </g>
    <g transform="matrix(15.6937,-39.4462,39.4462,15.6937,57.7639,60.2609)">
        <path d="M1.272,-0.163C1.25,-0.163 1.229,-0.158 1.211,-0.151C1.142,-0.123 1.098,-0.04 1.131,0.044C1.16,0.117 1.23,0.151 1.297,0.139L1.271,0.073C1.24,0.072 1.206,0.057 1.192,0.021C1.173,-0.025 1.199,-0.072 1.24,-0.088C1.278,-0.103 1.33,-0.09 1.349,-0.042C1.363,-0.008 1.351,0.025 1.331,0.047L1.358,0.114C1.412,0.076 1.438,0.004 1.41,-0.066C1.38,-0.141 1.313,-0.163 1.272,-0.163Z" style="fill:white;fill-rule:nonzero;"/>
    </g>
    <g transform="matrix(15.7038,-39.4717,39.4717,15.7038,46.2524,55.69)">
        <path d="M0.529,-0.095L0.261,0.012L0.287,0.078L0.371,0.044L0.383,0.074C0.399,0.115 0.414,0.131 0.437,0.143C0.458,0.154 0.491,0.154 0.518,0.143C0.546,0.132 0.568,0.111 0.577,0.083C0.583,0.064 0.583,0.043 0.564,-0.007L0.529,-0.095ZM0.495,-0.005L0.505,0.02C0.511,0.035 0.523,0.066 0.491,0.078C0.459,0.091 0.447,0.061 0.442,0.048L0.431,0.02L0.495,-0.005Z" style="fill:white;fill-rule:nonzero;"/>
    </g>
    <g transform="matrix(15.7001,-39.4624,39.4624,15.7001,13.3698,42.6252)">
        <path d="M0.822,-0.366C0.822,-0.366 0.865,-0.305 0.839,-0.187C0.839,-0.186 0.839,-0.186 0.838,-0.185C0.837,-0.182 0.834,-0.17 0.83,-0.156C0.825,-0.139 0.821,-0.125 0.82,-0.11L0.82,-0.108C0.82,-0.099 0.82,-0.09 0.823,-0.08C0.825,-0.072 0.827,-0.063 0.831,-0.056C0.832,-0.055 0.832,-0.054 0.832,-0.053C0.838,-0.044 0.843,-0.041 0.847,-0.041L0.849,-0.041C0.851,-0.042 0.852,-0.043 0.853,-0.046L0.853,-0.047C0.856,-0.053 0.858,-0.066 0.882,-0.076C0.907,-0.087 0.948,-0.06 0.949,0.014C0.949,0.014 0.931,-0.027 0.9,-0.015C0.884,-0.003 0.901,0.013 0.891,0.042C0.863,0.124 0.722,0.094 0.702,-0.009C0.695,-0.045 0.696,-0.068 0.711,-0.11L0.713,-0.106C0.72,-0.088 0.725,-0.073 0.732,-0.064C0.745,-0.07 0.76,-0.091 0.773,-0.123L0.773,-0.124C0.774,-0.126 0.775,-0.128 0.776,-0.13C0.778,-0.136 0.78,-0.143 0.783,-0.151C0.783,-0.153 0.785,-0.159 0.785,-0.16C0.785,-0.16 0.791,-0.177 0.795,-0.205C0.797,-0.221 0.798,-0.237 0.798,-0.254C0.798,-0.316 0.783,-0.399 0.721,-0.477C0.721,-0.477 0.787,-0.35 0.731,-0.28C0.669,-0.296 0.601,-0.293 0.536,-0.267C0.534,-0.267 0.532,-0.266 0.53,-0.265C0.499,-0.254 0.457,-0.233 0.417,-0.212C0.199,-0.093 -0.058,0.039 -0.058,0.039C-0.058,0.039 -0.045,0.087 0.039,0.241L0.043,0.238L0.044,0.238L0.513,-0.041C0.518,-0.044 0.524,-0.047 0.53,-0.049C0.591,-0.073 0.66,-0.044 0.684,0.018C0.709,0.079 0.678,0.148 0.617,0.173C0.612,0.175 0.606,0.176 0.6,0.178L0.067,0.298L0.062,0.299C0.106,0.469 0.13,0.513 0.13,0.513C0.13,0.513 0.408,0.433 0.648,0.369C0.692,0.357 0.736,0.343 0.767,0.329C0.769,0.329 0.771,0.328 0.773,0.327C0.936,0.262 1.014,0.077 0.949,-0.087C0.934,-0.126 0.911,-0.161 0.884,-0.189C0.885,-0.216 0.886,-0.248 0.87,-0.288C0.861,-0.311 0.846,-0.337 0.822,-0.366Z" style="fill:white;fill-rule:nonzero;"/>
    </g>
    <defs>
        <linearGradient id="_Linear1" x1="0" y1="0" x2="1" y2="0" gradientUnits="userSpaceOnUse" gradientTransform="matrix(1,0,0,1,0,-0.000125619)"><stop offset="0" style="stop-color:rgb(47,158,57);stop-opacity:1"/><stop offset="0.21" style="stop-color:rgb(47,158,57);stop-opacity:1"/><stop offset="1" style="stop-color:rgb(2,129,196);stop-opacity:1"/></linearGradient>
        <linearGradient id="_Linear2" x1="0" y1="0" x2="1" y2="0" gradientUnits="userSpaceOnUse" gradientTransform="matrix(1,0,0,1,0,7.29821e-06)"><stop offset="0" style="stop-color:rgb(47,158,57);stop-opacity:1"/><stop offset="0.21" style="stop-color:rgb(47,158,57);stop-opacity:1"/><stop offset="1" style="stop-color:rgb(2,129,196);stop-opacity:1"/></linearGradient>
    </defs>
</svg>
